<svg width="64" height="64" viewBox="0 0 64 64" fill="none" xmlns="http://www.w3.org/2000/svg">
  <path d="M44 28C44 24 40 20 36 20C34 20 32 20 30 22C28 18 24 16 20 16C14 16 10 20 10 26C8 26 6 28 6 32C6 36 10 40 14 40H44C48 40 52 36 52 32C52 28 48 24 44 28Z" stroke="#2DD4BF" stroke-width="2" fill="none" opacity="0.3"/>
  <path d="M44 28C44 24 40 20 36 20C34 20 32 20 30 22" stroke="#2DD4BF" stroke-width="2" fill="none"/>
  <circle cx="32" cy="32" r="8" fill="#2DD4BF" opacity="0.2"/>
  <path d="M28 32L30 34L36 28" stroke="#2DD4BF" stroke-width="2" stroke-linecap="round" stroke-linejoin="round"/>
</svg>

